<?xml version="1.0" standalone="no"?>
<!DOCTYPE svg PUBLIC "-//W3C//DTD SVG 20010904//EN"
 "http://www.w3.org/TR/2001/REC-SVG-20010904/DTD/svg10.dtd">
<svg version="1.0" xmlns="http://www.w3.org/2000/svg"
 width="700.000000pt" height="700.000000pt" viewBox="0 0 700.000000 700.000000"
 preserveAspectRatio="xMidYMid meet">
<metadata>
Created by potrace 1.14, written by Peter Selinger 2001-2017
</metadata>
<g transform="translate(0.000000,700.000000) scale(0.100000,-0.100000)"
fill="#000000" stroke="none">
<path d="M1135 6970 c-66 -14 -138 -49 -178 -88 -99 -94 -197 -271 -247 -442
-12 -41 -30 -100 -42 -130 -18 -49 -58 -206 -72 -285 -17 -87 -40 -250 -51
-360 -3 -27 -7 -63 -9 -80 -2 -16 -7 -64 -11 -105 -4 -41 -9 -88 -11 -105 -3
-16 -7 -93 -9 -170 -5 -198 12 -287 92 -484 78 -193 47 -349 -127 -641 -162
-272 -230 -432 -299 -705 -38 -150 -44 -449 -15 -690 4 -33 8 -62 9 -65 1 -3
5 -25 9 -50 5 -25 10 -52 11 -60 9 -48 39 -150 52 -177 19 -40 72 -62 90 -37
6 9 32 78 56 153 51 157 86 243 97 236 4 -2 8 -66 9 -142 5 -297 18 -542 36
-643 3 -14 7 -50 10 -80 14 -131 97 -414 144 -488 21 -34 32 -17 86 123 25 66
52 126 59 133 11 11 24 -8 77 -110 103 -199 192 -325 388 -547 84 -95 199
-179 326 -241 121 -58 190 -82 480 -165 158 -46 348 -122 555 -222 263 -128
504 -221 615 -239 22 -3 43 -8 46 -10 13 -8 160 -18 249 -16 172 2 342 41 507
118 43 20 130 59 193 86 63 28 158 70 210 95 137 65 289 125 431 171 204 66
451 157 530 196 106 52 189 118 326 260 139 143 202 225 258 333 80 155 107
202 120 207 14 5 21 -13 61 -149 17 -60 38 -95 57 -95 21 0 114 109 139 161
14 30 37 95 51 144 83 283 106 466 102 795 -2 213 -5 263 -20 310 -7 22 24
-19 45 -60 9 -19 34 -85 54 -145 20 -61 46 -126 57 -144 18 -29 24 -33 51 -27
18 3 39 13 48 21 16 15 40 102 60 222 6 35 12 75 15 89 2 15 7 61 10 103 4 42
8 96 11 121 9 91 4 307 -11 397 -34 216 -169 537 -358 852 -78 130 -117 219
-117 268 0 12 -4 23 -10 23 -5 0 -10 -8 -10 -19 0 -37 -80 -134 -148 -179 -13
-8 -109 -52 -215 -97 -205 -88 -197 -81 -184 -150 5 -28 10 -58 22 -147 7 -49
7 -175 0 -238 -28 -244 -216 -554 -426 -703 -84 -59 -274 -151 -359 -173 -70
-18 -247 -24 -360 -12 -246 27 -441 121 -622 301 -216 214 -310 450 -303 757
2 95 7 128 28 189 15 40 24 78 21 83 -13 20 -157 108 -212 128 -119 45 -271
10 -384 -90 l-46 -40 24 -71 c43 -126 46 -294 9 -483 -54 -273 -326 -579 -635
-713 -114 -49 -231 -71 -360 -67 -58 1 -118 5 -135 8 -108 20 -143 28 -212 51
-293 98 -542 342 -638 625 -29 84 -38 141 -39 225 0 70 12 183 24 240 5 22 10
45 10 52 0 11 -244 163 -262 163 -4 0 -8 5 -8 10 0 6 -5 10 -11 10 -15 0 -145
99 -216 164 -75 69 -103 123 -98 186 4 48 28 114 45 125 8 5 121 -70 185 -123
10 -8 283 -189 384 -254 l55 -35 28 59 c109 232 294 390 560 482 150 51 329
71 473 52 33 -4 62 -8 65 -8 32 -2 160 -47 215 -76 194 -101 321 -220 420
-393 l22 -40 49 41 c49 40 207 126 254 137 14 3 63 7 110 9 67 2 100 -2 157
-20 71 -23 182 -76 255 -123 21 -12 39 -23 41 -23 2 0 32 37 67 83 156 203
315 310 570 384 97 28 320 41 406 23 27 -5 60 -12 74 -14 66 -11 181 -61 265
-114 79 -51 271 -228 312 -289 8 -13 20 -23 27 -23 17 0 348 147 453 201 50
26 114 63 143 82 57 39 87 39 96 0 7 -26 16 -23 20 5 10 68 19 109 53 230 21
75 42 159 45 185 4 27 10 59 13 70 9 40 11 281 3 352 -4 39 -11 100 -15 137
-3 37 -8 77 -10 90 -2 13 -6 46 -10 73 -3 28 -8 57 -10 65 -2 8 -6 33 -10 54
-3 22 -19 94 -35 160 -45 189 -81 339 -86 362 -8 44 -77 239 -105 301 -63 139
-154 250 -240 293 -46 24 -170 48 -215 43 -54 -7 -158 -44 -239 -86 -61 -32
-103 -64 -175 -137 -262 -260 -353 -405 -485 -770 -29 -80 -56 -153 -60 -162
-6 -16 -26 -18 -204 -18 -189 0 -282 -8 -386 -34 -245 -60 -498 -168 -648
-277 -37 -27 -71 -49 -75 -49 -5 0 -18 9 -30 20 -38 36 -215 145 -288 178
-125 57 -290 107 -449 137 -119 23 -154 25 -394 28 l-125 2 -24 60 c-148 372
-330 690 -485 846 -221 222 -391 303 -562 269z"/>
</g>
</svg>
